<?xml version="1.0" encoding="utf-8"?>
<!-- Generator: Adobe Illustrator 24.0.1, SVG Export Plug-In . SVG Version: 6.00 Build 0)  -->
<svg version="1.1" xmlns="http://www.w3.org/2000/svg" xmlns:xlink="http://www.w3.org/1999/xlink" x="0px" y="0px"
	 viewBox="0 0 100 100" style="enable-background:new 0 0 100 100;" xml:space="preserve">
<style type="text/css">
	.st0{fill:#F2F2F2;}
	.st1{fill:#CD6799;}
</style>
<g id="Layer_2">
	<circle class="st0" cx="50" cy="50" r="50"/>
</g>
<g id="Layer_1">
	<path class="st1" d="M84.3,55.3c-3.3,0-6.2,0.8-8.6,2c-0.9-1.8-1.8-3.3-1.9-4.5c-0.2-1.3-0.4-2.2-0.2-3.7s1.1-3.9,1.1-4
		c0-0.2-0.2-1-2.1-1c-1.9,0-3.6,0.4-3.7,0.9c-0.2,0.5-0.6,1.6-0.8,2.8c-0.3,1.7-3.8,7.9-5.8,11.2c-0.6-1.3-1.2-2.4-1.3-3.3
		c-0.2-1.3-0.4-2.2-0.2-3.7c0.2-1.6,1.1-3.9,1.1-4c0-0.2-0.2-1-2.1-1s-3.6,0.4-3.7,0.9c-0.2,0.5-0.4,1.7-0.8,2.8
		c-0.4,1.1-5,11.5-6.2,14.2c-0.6,1.4-1.2,2.5-1.5,3.2l0,0c0,0,0,0.1-0.1,0.1c-0.3,0.6-0.5,1-0.5,1s0,0,0,0c-0.3,0.5-0.5,0.9-0.7,0.9
		c-0.1,0-0.3-1.2,0-2.9c0.7-3.6,2.3-9.2,2.3-9.4c0-0.1,0.3-1.1-1.1-1.6c-1.4-0.5-1.8,0.3-2,0.3s-0.2,0.3-0.2,0.3s1.5-6.3-2.9-6.3
		c-2.7,0-6.5,3-8.4,5.7c-1.2,0.6-3.7,2-6.4,3.5c-1,0.6-2.1,1.1-3.1,1.7c-0.1-0.1-0.1-0.2-0.2-0.2C19,55.4,9.2,51.4,9.6,43.8
		c0.2-2.8,1.1-10.1,18.9-18.9c14.6-7.2,26.2-5.2,28.2-0.8c2.9,6.3-6.2,18-21.3,19.7c-5.8,0.6-8.8-1.6-9.5-2.4
		c-0.8-0.9-0.9-0.9-1.2-0.7c-0.5,0.3-0.2,1,0,1.5c0.5,1.2,2.3,3.3,5.4,4.3c2.8,0.9,9.5,1.4,17.7-1.8c9.1-3.5,16.3-13.4,14.2-21.6
		c-2.1-8.4-16-11.1-29.1-6.5c-7.8,2.8-16.3,7.1-22.4,12.8c-7.2,6.8-8.4,12.6-7.9,15.1C4.3,53.3,16.3,59,21.2,63.2
		c-0.2,0.1-0.5,0.3-0.7,0.4c-2.4,1.2-11.6,6-13.9,11.1C4,80.5,7,84.6,9,85.1c6.2,1.7,12.6-1.4,16-6.5c3.4-5.1,3-11.7,1.4-14.8
		c0,0,0-0.1-0.1-0.1c0.6-0.4,1.3-0.7,1.9-1.1c1.2-0.7,2.4-1.4,3.5-2c-0.6,1.6-1,3.5-1.2,6.3c-0.3,3.3,1.1,7.5,2.8,9.2
		c0.8,0.7,1.7,0.7,2.3,0.7c2,0,3-1.7,4-3.7c1.2-2.5,2.4-5.3,2.4-5.3s-1.4,7.7,2.4,7.7c1.4,0,2.8-1.8,3.4-2.7c0,0,0,0,0,0
		s0-0.1,0.1-0.2c0.1-0.2,0.2-0.4,0.2-0.4s0,0,0,0c0.6-1,1.8-3.2,3.7-6.8c2.4-4.7,4.7-10.6,4.7-10.6s0.2,1.4,0.9,3.8
		c0.4,1.4,1.3,2.9,2,4.4c-0.6,0.8-0.9,1.2-0.9,1.2s0,0,0,0c-0.5,0.6-0.9,1.2-1.5,1.9c-1.9,2.3-4.1,4.8-4.5,5.6
		c-0.4,0.9-0.3,1.5,0.4,2c0.5,0.4,1.4,0.4,2.3,0.4c1.7-0.1,2.9-0.5,3.5-0.8c0.9-0.3,2-0.8,3-1.6c1.9-1.4,3-3.3,2.9-5.9
		c-0.1-1.4-0.5-2.8-1.1-4.2c0.2-0.2,0.3-0.5,0.5-0.7c2.9-4.3,5.2-9,5.2-9s0.2,1.4,0.9,3.8c0.3,1.2,1.1,2.5,1.7,3.8
		c-2.8,2.2-4.5,4.8-5.1,6.5c-1.1,3.2-0.2,4.6,1.4,4.9c0.7,0.2,1.8-0.2,2.5-0.5c1-0.3,2.1-0.9,3.2-1.6c1.9-1.4,3.6-3.3,3.5-5.9
		c-0.1-1.2-0.4-2.3-0.8-3.5c2.3-1,5.4-1.5,9.2-1.1c8.3,1,9.9,6.1,9.6,8.3c-0.3,2.2-2,3.3-2.6,3.7s-0.8,0.5-0.7,0.7
		c0.1,0.4,0.3,0.4,0.8,0.3c0.7-0.1,4.3-1.8,4.5-5.7C97.8,60.9,92.9,55.3,84.3,55.3z M20.6,76.8c-2.7,3-6.6,4.1-8.2,3.2
		c-1.8-1-1.1-5.4,2.3-8.6c2-1.9,4.7-3.7,6.4-4.8c0.4-0.2,1-0.6,1.7-1c0.1-0.1,0.2-0.1,0.2-0.1l0,0c0.1-0.1,0.3-0.2,0.4-0.3
		C24.6,69.7,23.5,73.7,20.6,76.8z M40.5,63.2c-1,2.3-2.9,8.3-4.2,7.9c-1-0.3-1.7-4.8-0.2-9.2c0.7-2.2,2.3-4.9,3.2-6
		c1.5-1.7,3.1-2.2,3.5-1.5C43.5,55.3,41.1,61.8,40.5,63.2z M57,71.1c-0.4,0.2-0.8,0.3-1,0.2c-0.1-0.1,0.2-0.3,0.2-0.3
		s2.1-2.2,2.9-3.2c0.5-0.6,1-1.3,1.6-2.1c0,0.1,0,0.2,0,0.2C60.7,68.6,58.2,70.4,57,71.1z M69.7,68.2c-0.3-0.2-0.2-0.9,0.7-3.1
		c0.4-0.9,1.3-2.3,2.8-3.6c0.2,0.6,0.3,1.1,0.3,1.6C73.5,66.5,71.1,67.7,69.7,68.2z"/>
</g>
</svg>
