<?xml version="1.0" encoding="utf-8"?>
<!-- Generator: Adobe Illustrator 24.0.1, SVG Export Plug-In . SVG Version: 6.00 Build 0)  -->
<svg version="1.1" xmlns="http://www.w3.org/2000/svg" xmlns:xlink="http://www.w3.org/1999/xlink" x="0px" y="0px"
	 viewBox="0 0 100 100" style="enable-background:new 0 0 100 100;" xml:space="preserve">
<style type="text/css">
	.st0{fill:#F2F2F2;}
	.st1{fill:#0ACF83;}
	.st2{fill:#A259FF;}
	.st3{fill:#F24E1E;}
	.st4{fill:#FF7262;}
	.st5{fill:#1ABCFE;}
</style>
<g id="Layer_2">
	<circle class="st0" cx="50" cy="50" r="50"/>
</g>
<g id="Layer_1">
	<g>
		<path class="st1" d="M36.1,93.1c7.8,0,14.2-6.3,14.2-14.2V64.8H36.1c-7.8,0-14.2,6.3-14.2,14.2C21.9,86.7,28.3,93.1,36.1,93.1z"/>
		<path class="st2" d="M21.9,50.6c0-7.8,6.3-14.2,14.2-14.2h14.2v28.3H36.1C28.3,64.8,21.9,58.4,21.9,50.6z"/>
		<path class="st3" d="M21.9,22.3c0-7.8,6.3-14.2,14.2-14.2h14.2v28.3H36.1C28.3,36.4,21.9,30.1,21.9,22.3z"/>
		<path class="st4" d="M50.2,8.1h14.2c7.8,0,14.2,6.3,14.2,14.2c0,7.8-6.3,14.2-14.2,14.2H50.2V8.1z"/>
		<path class="st5" d="M78.5,50.6c0,7.8-6.3,14.2-14.2,14.2s-14.2-6.3-14.2-14.2c0-7.8,6.3-14.2,14.2-14.2S78.5,42.8,78.5,50.6z"/>
	</g>
</g>
</svg>
