<?xml version="1.0" encoding="utf-8"?>
<!-- Generator: Adobe Illustrator 24.0.1, SVG Export Plug-In . SVG Version: 6.00 Build 0)  -->
<svg version="1.1" id="Layer_1" xmlns="http://www.w3.org/2000/svg" xmlns:xlink="http://www.w3.org/1999/xlink" x="0px" y="0px"
	 viewBox="0 0 100 100" style="enable-background:new 0 0 100 100;" xml:space="preserve">
<style type="text/css">
	.st0{fill:#1877F2;}
</style>
<path class="st0" d="M100,50c0-27.6-22.4-50-50-50S0,22.4,0,50s22.4,50,50,50c0.3,0,0.6,0,0.9,0V61.1H40.1V48.6h10.7v-9.2
	c0-10.7,6.5-16.5,16.1-16.5c4.6,0,8.5,0.3,9.6,0.5v11.2H70c-5.2,0-6.2,2.5-6.2,6.1v8h12.4l-1.6,12.5H63.8v37
	C84.7,92.1,100,72.8,100,50z"/>
</svg>
